<?xml version="1.0" encoding="UTF-8"?>
<svg id="OBJECTS" xmlns="http://www.w3.org/2000/svg" version="1.1" viewBox="0 0 703 128.7">
  <!-- Generator: Adobe Illustrator 29.7.1, SVG Export Plug-In . SVG Version: 2.1.1 Build 8)  -->
  <defs>
    <style>
      .st0 {
        fill: #fff;
      }
    </style>
  </defs>
  <polygon class="st0" points="703 128.7 699.8 96.9 686.5 83.2 674.8 70.5 660.9 63.2 657.4 70.3 649.7 74.5 637.9 68.3 621.8 57.3 610.3 48.2 600.3 59.6 593.4 70.4 585.1 67.3 572 52.8 555.8 34.8 544.8 26.8 535.9 17.9 505.1 39.9 497.4 49.1 480.2 62 469.8 51.7 449.3 39.4 436.2 38.4 418.3 26.6 407.2 21.8 400.2 33.7 391.9 41.1 375.9 63.4 338.4 86.6 329.8 84.9 318.5 80.6 305.6 72.1 295.1 82.9 290.1 90.9 282.5 87.7 267.6 72.1 255.4 65.3 245.8 52.7 230.7 41.2 221.2 54.2 202.7 69.9 174.3 89.6 164.8 80.6 150 60.7 134.6 42.5 121.2 22.3 110.9 30.4 96.9 43.5 88.4 41.6 76.6 36.6 64.6 45.9 53 56 36.9 86.3 12.3 111.2 0 128.7 703 128.7"/>
</svg>